<?xml version="1.0" standalone="no"?>
<!DOCTYPE svg PUBLIC "-//W3C//DTD SVG 20010904//EN"
 "http://www.w3.org/TR/2001/REC-SVG-20010904/DTD/svg10.dtd">
<svg version="1.0" xmlns="http://www.w3.org/2000/svg"
 width="260.000000pt" height="260.000000pt" viewBox="0 0 260.000000 260.000000"
 preserveAspectRatio="xMidYMid meet">
<metadata>
Created by potrace 1.11, written by Peter Selinger 2001-2013
</metadata>
<g transform="translate(0.000000,260.000000) scale(0.100000,-0.100000)"
fill="#000000" stroke="none">
<path d="M965 2513 c-128 -15 -299 -79 -420 -157 -200 -131 -351 -331 -418
-556 -34 -112 -38 -136 -42 -265 -7 -223 43 -402 170 -600 45 -69 176 -205
252 -259 57 -40 219 -126 239 -126 10 0 13 -44 13 -197 0 -109 0 -208 0 -220
l1 -23 868 0 867 0 0 860 c0 639 -3 863 -12 868 -6 4 -98 6 -205 6 -206 -2
-228 0 -228 20 0 7 -16 47 -37 87 -144 291 -411 492 -733 553 -66 13 -238 18
-315 9z m360 -133 c237 -61 456 -232 569 -444 14 -27 26 -53 26 -57 0 -5 -268
-9 -595 -9 l-595 0 0 -595 c0 -327 -4 -595 -8 -595 -15 0 -155 91 -205 133
-128 107 -254 302 -291 452 -63 254 -26 510 106 720 135 214 398 387 625 411
32 4 60 9 63 11 12 12 231 -8 305 -27z m1063 -1404 l-3 -761 -757 0 c-417 0
-759 2 -759 5 -1 3 -2 69 -3 148 l-1 144 30 -7 c16 -3 91 -8 165 -11 104 -5
156 -2 223 10 203 39 380 130 523 271 211 207 316 466 308 760 -1 55 -5 114
-8 130 -3 17 -8 40 -10 52 -4 21 -3 21 145 20 l149 -1 -2 -760z"/>
</g>
</svg>
